<?xml version="1.0" encoding="utf-8"?>
<!-- Generator: Adobe Illustrator 19.1.0, SVG Export Plug-In . SVG Version: 6.00 Build 0)  -->
<svg version="1.1" id="Layer_1" xmlns="http://www.w3.org/2000/svg" xmlns:xlink="http://www.w3.org/1999/xlink" x="0px" y="0px"
	 viewBox="-461 264.2 36.4 33.8" style="enable-background:new -461 264.2 36.4 33.8;" xml:space="preserve">
<style type="text/css">
	.st0{fill:#FFFFFF;}
</style>
<g id="s3kP6k.tif">
	<g>
		<path class="st0" d="M-460.9,280.3c0.1-0.8,0.2-1.6,0.3-2.4c1.2-6.5,6.5-12,13-13.3c5.2-1.1,9.9,0,14.1,3.3
			c0.1,0.1,0.1,0.1,0.2,0.1c-0.9,0.9-1.8,1.8-2.7,2.7c-0.8-0.5-1.7-1-2.6-1.5c-7.8-3.7-17,1.2-18.3,9.7c-1.2,7.1,3.5,13.7,10.6,15
			c7.2,1.3,14.3-3.8,15.2-11.1c0-0.4,0.2-0.7,0.5-1c1.1-1.1,2.2-2.1,3.2-3.2h0.1c0,1,0.2,1.9,0.1,2.9c-0.3,8.1-6,14.8-14.1,16.2
			c-9.2,1.6-18.1-4.8-19.5-13.9c0.1-0.5,0-1.2-0.1-1.8C-460.9,281.5-460.9,280.9-460.9,280.3z"/>
		<path class="st0" d="M-443.1,290.6c-3.5-3.5-7-7-10.5-10.5c1.5-1.5,3-3,4.4-4.4c2,2,4,4,6,6c4.8-4.8,9.5-9.5,14.1-14.1
			c1.5,1.6,3,3.1,4.5,4.5C-430.7,278.2-436.9,284.4-443.1,290.6z"/>
	</g>
</g>
</svg>
