<?xml version="1.0" encoding="utf-8"?>
<!-- Generator: Adobe Illustrator 19.1.0, SVG Export Plug-In . SVG Version: 6.00 Build 0)  -->
<svg version="1.1" id="Layer_1" xmlns="http://www.w3.org/2000/svg" xmlns:xlink="http://www.w3.org/1999/xlink" x="0px" y="0px"
	 viewBox="0 0 36.4 33.8" style="enable-background:new 0 0 36.4 33.8;" xml:space="preserve">
<style type="text/css">
	.st0{fill:#22B573;}
</style>
<g id="s3kP6k.tif">
	<g>
		<path class="st0" d="M0,16c0.1-0.8,0.2-1.6,0.3-2.4c1.2-6.5,6.5-12,13-13.3c5.2-1.1,9.9,0,14.1,3.3c0.1,0.1,0.1,0.1,0.2,0.1
			c-0.9,0.9-1.8,1.8-2.7,2.7c-0.8-0.5-1.7-1-2.6-1.5c-7.8-3.7-17,1.2-18.3,9.7c-1.2,7.1,3.5,13.7,10.6,15
			c7.2,1.3,14.3-3.8,15.2-11.1c0-0.4,0.2-0.7,0.5-1c1.1-1.1,2.2-2.1,3.2-3.2c0,0,0.1,0,0.1,0c0,1,0.2,1.9,0.1,2.9
			c-0.3,8.1-6,14.8-14.1,16.2c-9.2,1.6-18.1-4.8-19.5-13.9C0.2,19,0.1,18.3,0,17.7C0,17.2,0,16.6,0,16z"/>
		<path class="st0" d="M17.8,26.3c-3.5-3.5-7-7-10.5-10.5c1.5-1.5,3-3,4.4-4.4c2,2,4,4,6,6c4.8-4.8,9.5-9.5,14.1-14.1
			c1.5,1.6,3,3.1,4.5,4.5C30.2,13.9,24,20.1,17.8,26.3z"/>
	</g>
</g>
</svg>
