<?xml version="1.0" encoding="utf-8"?>
<!-- Generator: Adobe Illustrator 19.1.0, SVG Export Plug-In . SVG Version: 6.00 Build 0)  -->
<svg version="1.1" id="Layer_1" xmlns="http://www.w3.org/2000/svg" xmlns:xlink="http://www.w3.org/1999/xlink" x="0px" y="0px"
	 viewBox="0 0 94.2 84.8" style="enable-background:new 0 0 94.2 84.8;" xml:space="preserve">
<style type="text/css">
	.st0{fill:#FCFCFC;}
	.st1{fill:#FFFFFF;}
</style>
<g>
	<g id="YtOS9t.tif">
		<g>
			<path class="st0" d="M72.5,60.3c-0.1,3.1-1.3,4.7-3.5,5.8C57,72,45.1,78,33.1,84c-3.5,1.7-6.5,0.8-8.2-2.7c-5-10-10-20-15-30
				c-3-6-6-12-9-18C-1,29.4,0,26.4,3.8,24.5c11.8-5.9,23.5-11.7,35.3-17.6C43,5,45.9,6,47.8,9.8c8,16,15.9,32,23.9,48.1
				C72.1,58.8,72.4,59.8,72.5,60.3z M69.2,61.3c-0.4-1-0.5-1.5-0.7-1.9c-8-16.1-16-32.2-24-48.2c-0.9-1.8-1.9-2.1-3.7-1.2
				C29,15.9,17.1,21.8,5.2,27.7C3.4,28.6,3,29.6,4,31.4c8,16.1,16,32.2,24,48.2c0.9,1.9,1.8,2.2,3.7,1.2c3.3-1.6,6.6-3.3,9.9-4.9
				c8.5-4.2,17-8.4,25.4-12.7C67.8,62.8,68.5,61.9,69.2,61.3z"/>
			<path class="st0" d="M72.9,51.3c-1.9-2.9-3.6-5.8-3.5-9.5c0.2-11.5,0.1-23,0.1-34.6c0-3.3-0.4-3.6-3.6-3.6c-12.8,0-25.7,0-38.5,0
				c-2.7,0-3.2,0.5-3.2,3.2c0,0.3,0,0.5,0,0.8c0,3.2,0,3.2-3.3,4.4c0-2.6-0.3-5.2,0.1-7.8C21.1,1.8,23.5,0,26.1,0
				C39.9,0,53.6,0,67.4,0c3,0,5.4,2.3,5.4,5.2C72.9,20.6,72.9,35.9,72.9,51.3z"/>
			<path class="st0" d="M76.6,10.8c1.5,0.7,3,1.5,4.4,2.2c3.3,1.6,6.6,3.2,9.9,4.9c3,1.5,4.1,4.6,2.7,7.5
				C88.1,36.6,82.6,47.7,77,58.8c-0.1,0.2-0.2,0.3-0.4,0.4c-0.2-3.5-0.5-6.8,1.3-10.1c4.1-7.7,7.9-15.6,11.8-23.4
				c1.7-3.4,1.6-3.8-1.9-5.5c-2.9-1.5-5.9-2.9-8.8-4.4C76.1,14.4,76.1,14.4,76.6,10.8z"/>
			<path class="st0" d="M58,75.6c2-1,3.3-2.4,5.5-1.3c0.5,0.2,2.2-0.6,2.4-1.2c1.1-2.7,3.6-3.1,6-4c-1.1,2.2-2.1,4.4-3.4,6.5
				c-1.4,2.2-4.2,2.9-6.6,1.9C60.7,77,59.6,76.4,58,75.6z"/>
		</g>
	</g>
	<g id="FxzYuO.tif">
		<g>
			<path class="st1" d="M36.4,25.8c10.8,0,19.6,8.8,19.6,19.7c0,10.8-8.8,19.6-19.7,19.6c-10.8,0-19.6-8.8-19.6-19.7
				C16.7,34.6,25.6,25.8,36.4,25.8z M36.3,63.6c10,0,18.2-8.1,18.2-18c0-10-8.1-18.2-18-18.2c-10.1,0-18.2,8.1-18.2,18.1
				C18.2,55.4,26.3,63.5,36.3,63.6z"/>
			<path class="st1" d="M49.9,45.4c0,7.5-6,13.5-13.5,13.6c-7.5,0-13.6-6-13.6-13.5c0-7.5,6.1-13.5,13.5-13.5
				C43.9,31.9,49.9,37.9,49.9,45.4z M36.4,33.4c-6.7,0-12,5.3-12,12c0,6.7,5.3,12.1,12,12.1c6.7,0,12.1-5.4,12.1-12.1
				C48.4,38.8,43,33.4,36.4,33.4z"/>
			<path class="st1" d="M43.9,45.5c0,4.1-3.4,7.5-7.5,7.5c-4.1,0-7.5-3.4-7.5-7.6c0-4.1,3.4-7.5,7.6-7.5
				C40.6,37.9,43.9,41.3,43.9,45.5z"/>
		</g>
	</g>
</g>
</svg>
