<?xml version="1.0" encoding="utf-8"?>
<!-- Generator: Adobe Illustrator 19.1.0, SVG Export Plug-In . SVG Version: 6.00 Build 0)  -->
<svg version="1.1" id="Layer_1" xmlns="http://www.w3.org/2000/svg" xmlns:xlink="http://www.w3.org/1999/xlink" x="0px" y="0px"
	 viewBox="-272 526.2 94.2 84.8" style="enable-background:new -272 526.2 94.2 84.8;" xml:space="preserve">
<style type="text/css">
	.st0{opacity:0.8;}
	.st1{fill:#D7552A;}
</style>
<g class="st0">
	<g id="YtOS9t.tif">
		<g>
			<path class="st1" d="M-199.5,586.5c-0.1,3.1-1.3,4.7-3.5,5.8c-12,5.9-23.9,11.9-35.9,17.9c-3.5,1.7-6.5,0.8-8.2-2.7
				c-5-10-10-20-15-30c-3-6-6-12-9-18c-1.9-3.9-0.9-6.9,2.9-8.8c11.8-5.9,23.5-11.7,35.3-17.6c3.9-1.9,6.8-0.9,8.7,2.9
				c8,16,15.9,32,23.9,48.1C-199.9,585-199.6,586-199.5,586.5z M-202.8,587.5c-0.4-1-0.5-1.5-0.7-1.9c-8-16.1-16-32.2-24-48.2
				c-0.9-1.8-1.9-2.1-3.7-1.2c-11.8,5.9-23.7,11.8-35.6,17.7c-1.8,0.9-2.2,1.9-1.2,3.7c8,16.1,16,32.2,24,48.2
				c0.9,1.9,1.8,2.2,3.7,1.2c3.3-1.6,6.6-3.3,9.9-4.9c8.5-4.2,17-8.4,25.4-12.7C-204.2,589-203.5,588.1-202.8,587.5z"/>
			<path class="st1" d="M-199.1,577.5c-1.9-2.9-3.6-5.8-3.5-9.5c0.2-11.5,0.1-23,0.1-34.6c0-3.3-0.4-3.6-3.6-3.6
				c-12.8,0-25.7,0-38.5,0c-2.7,0-3.2,0.5-3.2,3.2c0,0.3,0,0.5,0,0.8c0,3.2,0,3.2-3.3,4.4c0-2.6-0.3-5.2,0.1-7.8
				c0.1-2.4,2.5-4.2,5.1-4.2c13.8,0,27.5,0,41.3,0c3,0,5.4,2.3,5.4,5.2C-199.1,546.8-199.1,562.1-199.1,577.5z"/>
			<path class="st1" d="M-195.4,537c1.5,0.7,3,1.5,4.4,2.2c3.3,1.6,6.6,3.2,9.9,4.9c3,1.5,4.1,4.6,2.7,7.5
				c-5.5,11.2-11,22.3-16.6,33.4c-0.1,0.2-0.2,0.3-0.4,0.4c-0.2-3.5-0.5-6.8,1.3-10.1c4.1-7.7,7.9-15.6,11.8-23.4
				c1.7-3.4,1.6-3.8-1.9-5.5c-2.9-1.5-5.9-2.9-8.8-4.4C-195.9,540.6-195.9,540.6-195.4,537z"/>
			<path class="st1" d="M-214,601.8c2-1,3.3-2.4,5.5-1.3c0.5,0.2,2.2-0.6,2.4-1.2c1.1-2.7,3.6-3.1,6-4c-1.1,2.2-2.1,4.4-3.4,6.5
				c-1.4,2.2-4.2,2.9-6.6,1.9C-211.3,603.2-212.4,602.6-214,601.8z"/>
		</g>
	</g>
	<g id="FxzYuO.tif">
		<g>
			<path class="st1" d="M-235.6,552c10.8,0,19.6,8.8,19.6,19.7c0,10.8-8.8,19.6-19.7,19.6c-10.8,0-19.6-8.8-19.6-19.7
				C-255.3,560.8-246.4,552-235.6,552z M-235.7,589.8c10,0,18.2-8.1,18.2-18c0-10-8.1-18.2-18-18.2c-10.1,0-18.2,8.1-18.2,18.1
				C-253.8,581.6-245.7,589.7-235.7,589.8z"/>
			<path class="st1" d="M-222.1,571.6c0,7.5-6,13.5-13.5,13.6c-7.5,0-13.6-6-13.6-13.5s6.1-13.5,13.5-13.5
				C-228.1,558.1-222.1,564.1-222.1,571.6z M-235.6,559.6c-6.7,0-12,5.3-12,12s5.3,12.1,12,12.1c6.7,0,12.1-5.4,12.1-12.1
				C-223.6,565-229,559.6-235.6,559.6z"/>
			<path class="st1" d="M-228.1,571.7c0,4.1-3.4,7.5-7.5,7.5s-7.5-3.4-7.5-7.6c0-4.1,3.4-7.5,7.6-7.5
				C-231.4,564.1-228.1,567.5-228.1,571.7z"/>
		</g>
	</g>
</g>
</svg>
