<?xml version="1.0" encoding="utf-8"?>
<!-- Generator: Adobe Illustrator 19.1.0, SVG Export Plug-In . SVG Version: 6.00 Build 0)  -->
<svg version="1.1" id="Layer_1" xmlns="http://www.w3.org/2000/svg" xmlns:xlink="http://www.w3.org/1999/xlink" x="0px" y="0px"
	 viewBox="-461 264.2 36.4 33.8" style="enable-background:new -461 264.2 36.4 33.8;" xml:space="preserve">
<style type="text/css">
	.st0{fill:#FFFFFF;}
</style>
<g id="s3kP6k.tif">
	<g>
		<path class="st0" d="M-460.5,280.3c0.1-0.8,0.2-1.6,0.3-2.4c1.2-6.5,6.5-12,13-13.3c5.2-1.1,9.9,0,14.1,3.3
			c0.1,0.1,0.1,0.1,0.2,0.1c-0.9,0.9-1.8,1.8-2.7,2.7c-0.8-0.5-1.7-1-2.6-1.5c-7.8-3.7-17,1.2-18.3,9.7c-1.2,7.1,3.5,13.7,10.6,15
			c7.2,1.3,14.3-3.8,15.2-11.1c0-0.4,0.2-0.7,0.5-1c1.1-1.1,2.2-2.1,3.2-3.2h0.1c0,1,0.2,1.9,0.1,2.9c-0.3,8.1-6,14.8-14.1,16.2
			c-9.2,1.6-18.1-4.8-19.5-13.9c0.1-0.5,0-1.2-0.1-1.8C-460.5,281.5-460.5,280.9-460.5,280.3z"/>
		<g id="nEigiV.tif">
		</g>
	</g>
</g>
<g id="dQiWbB.tif">
	<g>
		<path class="st0" d="M-425,273c-0.2,0.7-0.7,1.1-1.2,1.5c-0.3,0.3-0.6,0.6-0.9,0.8c-1.7-1.9-3.5-3.8-5.2-5.7
			c0.8-0.6,1.4-1.6,2.5-1.9c0.3,0,0.5,0,0.8,0c0.6,0.2,1,0.6,1.4,1c0.5,0.6,1.1,1.2,1.7,1.8c0.4,0.4,0.8,0.9,0.9,1.5
			C-425,272.4-425,272.7-425,273z"/>
		<path class="st0" d="M-450.6,291.5c0.1-0.6,0.3-1.2,0.4-1.8c0.3-1.4,0.5-2.7,0.8-4c1.7,1.8,3.4,3.6,5,5.5
			c-0.8,0.1-1.6,0.2-2.4,0.3c-1.1,0.1-2.3,0.2-3.4,0.4h-0.1c-0.1,0-0.2,0-0.3,0C-450.6,291.7-450.6,291.6-450.6,291.5z"/>
		<path class="st0" d="M-433.1,270.5c0.2,0.2,0.4,0.5,0.7,0.7c-4.9,4.5-9.9,9.1-14.8,13.6c0.3,0.3,0.5,0.5,0.7,0.8
			c4.9-4.5,9.8-9.1,14.7-13.6c1.3,1.4,2.5,2.7,3.7,4c-5.2,4.8-10.4,9.6-15.5,14.3c-1.7-1.8-3.4-3.7-5.1-5.5
			C-443.5,280.1-438.3,275.3-433.1,270.5z"/>
	</g>
</g>
</svg>
