<?xml version="1.0" encoding="utf-8"?>
<!-- Generator: Adobe Illustrator 19.1.0, SVG Export Plug-In . SVG Version: 6.00 Build 0)  -->
<svg version="1.1" id="Layer_1" xmlns="http://www.w3.org/2000/svg" xmlns:xlink="http://www.w3.org/1999/xlink" x="0px" y="0px"
	 viewBox="-262 490.9 113.1 157.1" style="enable-background:new -262 490.9 113.1 157.1;" xml:space="preserve">
<style type="text/css">
	.st0{fill:#FFFFFF;}
</style>
<g id="XlMBsp.tif">
	<g>
		<path class="st0" d="M-169.9,503.3c8.7,3.9,11.8,10.7,11,20.1c-0.5,6.1-0.1,12.3-0.1,19.5c-5.1-4.2-10.6-6.6-9.5-14.2
			c0.5-3.2,0.1-6.6,0-10c-0.1-3.6-1.9-5.6-5.6-5.6c-22.6,0-45.3,0-67.9,0c-3.4,0-5.1,1.9-5.4,5.3c-0.1,0.8-0.1,1.7-0.1,2.5
			c0,31,0,61.9,0,92.9c0,6.7,1.3,7.8,8,7.8c21.1,0,42.3,0,63.4,0c6.4,0,7.5-1.2,7.7-7.6c0-2,0.3-4.1,0-6c-1.5-7.7,2.8-12,9.2-15.7
			c0,9.2,0.4,18.1-0.1,27c-0.4,6.3-5.6,9.3-10.6,12.1c-25.3,0-50.7,0-76,0c-8.7-3.9-11.2-10.7-11.1-20c0.4-29.3,0.4-58.6,0-87.9
			c-0.1-9.3,2.4-16.1,11.1-20C-220.5,503.3-195.2,503.3-169.9,503.3z"/>
		<path class="st0" d="M-192.8,582c-9.5,0-18.2,0-26.8,0c-6.2,0-7.7-1.5-7.8-7.6c-0.1-4.8-0.1-9.7,0-14.5c0.1-5.6,1.6-7.1,7.2-7.2
			c7.3-0.1,14.7,0,22,0c1.6,0,3.2-0.2,5.4-0.3c0-4.3-0.2-8.2,0.1-12.2c0.1-1.5,0.8-3.6,1.9-4.2c1-0.5,3.2,0.2,4.3,1.1
			c11.5,9.8,22.9,19.8,34.6,29.9c-0.7,0.9-1.2,1.7-1.9,2.3c-10.7,9.3-21.4,18.6-32.2,27.7c-1.2,1-3.5,2-4.6,1.5
			c-1.2-0.6-2-2.9-2.2-4.5C-193,590.3-192.8,586.5-192.8,582z"/>
	</g>
</g>
</svg>
